<?xml version="1.0" encoding="utf-8"?>
<!-- Generator: Adobe Illustrator 24.0.0, SVG Export Plug-In . SVG Version: 6.00 Build 0)  -->
<svg version="1.1" xmlns="http://www.w3.org/2000/svg" xmlns:xlink="http://www.w3.org/1999/xlink" x="0px" y="0px"
	 viewBox="0 0 565 496.1" style="enable-background:new 0 0 565 496.1;" xml:space="preserve">
<style type="text/css">
	.st0{display:none;}
	.st1{display:inline;fill:#606060;}
	.st2{fill:#1B2F3B;}
	.st3{fill:#359444;}
	.st4{fill:#B50056;}
	.st5{clip-path:url(#SVGID_2_);}
	.st6{fill:url(#SVGID_3_);}
	.st7{clip-path:url(#SVGID_5_);}
	.st8{opacity:0.15;enable-background:new    ;}
	.st9{clip-path:url(#SVGID_7_);}
	.st10{fill:url(#SVGID_8_);}
	.st11{fill:#FFFFFF;}
	.st12{fill:url(#SVGID_9_);}
	.st13{fill:url(#SVGID_10_);}
</style>
<g id="Layer_2" class="st0">
	<rect x="0" y="0" class="st1" width="565" height="496.1"/>
</g>
<g id="Layer_1">
	<title>kataBPOM_10</title>
	<g>
		<g id="Layer_2_1_">
			<g id="Layer_2_copy">
				<path class="st2" d="M98.6,287.9c-0.2,0.2-0.4,0.5-0.6,0.8l-19,28.7c-2.4,3.7-5.6,6.7-9.4,9c-2.8,1.7-5.9,2.6-9.2,2.8
					c-1,0-2-0.1-2.9-0.4c-0.5-0.2-1-0.4-1.4-0.7c-0.5-0.4-1-0.9-1.3-1.5c-0.4-0.9-0.6-2-0.6-3c0-1.2,0.2-2.3,0.5-3.4l4.7-18.1
					c-4.2,2.9-9.3,4.3-14.5,3.8l-2.9,11v0.1c-0.5,2.1-0.8,4.3-0.8,6.5c0,2.7,0.5,5.3,1.5,7.8c0.7,1.8,1.7,3.4,3,4.8
					c1.9,2,4.2,3.6,6.8,4.6c2.5,1,5.2,1.4,7.9,1.4c5.5-0.1,10.9-1.7,15.7-4.5c5.5-3.2,10.2-7.7,13.7-13l0,0l12.3-18.5
					c0.7-8.3,2.3-16.5,3.2-24.7C102.9,283.4,100.7,285.5,98.6,287.9z"/>
				<path class="st2" d="M339.3,77.3c-3-7.9-8.4-14.7-15.6-19.3c-3.3-2.2-7-3.8-10.8-5c1.3,4.5,1.3,9.3,0,13.8c2.2,1,4.2,2.2,6,3.7
					c3.3,2.7,5.9,6.1,7.6,10c1.8,4.2,2.7,8.7,2.6,13.3c0,1.8-0.1,3.5-0.4,5.3l-6.5,49.1c4.5-1,9-2.1,13.5-3l5.9-44.5
					c0.3-2.3,0.5-4.7,0.5-7C342.3,88.2,341.3,82.6,339.3,77.3z"/>
				<path class="st2" d="M338.2,423.9c-0.3-1.3-0.7-2.6-1-3.9c-0.1-0.5-0.2-1.1-0.3-1.6c-0.8-0.2-1.5-0.4-2.3-0.6
					c-5.5-1.3-11.2-2.1-16.9-2.3l0,0l-169.2-6.3c-3.9-0.2-7.8-1.1-11.4-2.8c-7.8-3.7-13.7-10.6-16.1-18.9c-2.6,0.3-5.2,0.1-7.8-0.5
					c-2.1-0.5-4.2-1.4-6-2.6c2.5,20.9,19.8,36.9,40.8,37.8l0,0l169.1,6.3c6.2,0.3,13.1,1.2,18.8,3.3c1,0.4,2,0.8,3,1.3
					c0.1-2.3,0.1-4.6-0.1-6.9C338.5,425.4,338.4,424.6,338.2,423.9z"/>
				<path class="st2" d="M492.6,184c-3.5-7.9-9.3-14.6-16.6-19.3c-4-2.5-8.3-4.4-12.9-5.6c2.6,3.9,4.1,8.4,4.3,13
					c0,0.9,0,1.7-0.1,2.6c2.4,1.3,4.5,2.9,6.5,4.8c2.9,2.8,5.3,6.1,6.9,9.8c1.7,3.9,2.6,8,2.5,12.2c0,1.5-0.1,3-0.3,4.6l-23.6,169.5
					c-1.7,12.2-7.1,23.2-14.5,31c-3.6,3.8-7.8,6.9-12.5,9.1c-4.6,2.1-9.6,3.3-14.6,3.3h-1.5l-6-0.3l-7.1,58c-0.2,1.3-0.5,2.5-1,3.6
					c-0.2,0.5-0.6,1-0.9,1.4c-0.4,0.5-0.9,0.8-1.5,1.1c-0.8,0.3-1.6,0.4-2.4,0.4c-1.6,0-3.2-0.4-4.8-1c-3.1-1.2-6-3-8.6-5.2
					c-2.8-2.4-5.2-5.2-7-8.4l-4-7.8c-1.4,0.6-3,1-4.5,1.1c-3.4,0.2-6.7-0.1-10-1l7.1,13.9l0.1,0.1c3.4,6,8.2,11.1,13.9,15
					c2.7,1.8,5.6,3.3,8.6,4.5c2.9,1.1,6.1,1.7,9.2,1.7c2.2,0,4.4-0.3,6.4-1c1.6-0.6,3.1-1.4,4.5-2.4c2.2-1.6,3.9-3.7,5.2-6.1
					c1.3-2.6,2.2-5.3,2.6-8.2v-0.1l5.7-46.8c5.6-0.5,11-1.9,16.1-4.3c9.3-4.5,17.2-11.4,22.9-20c6-9,10-19.3,11.5-30.1l23.6-169.5
					c0.3-2.1,0.4-4.2,0.5-6.4C496.3,195.5,495.1,189.5,492.6,184z"/>
				<path class="st3" d="M427.2,153c26.9-6.4,47.3,5.6,43.5,33l-24,163.1c-3.9,27.6-24,50.2-49.5,49.1l0,0l-5.3,45
					c-3.1,21.2-13,23.4-22.9,6l-9.4-26.6c-9.8-18-27.7-27.9-40.9-28.5l-169.1-6.3c-22.3-1-47.5-7-43.2-28.9L126,258.8
					c4.4-22.5,21.6-40.3,43.9-45.5L427.2,153z"/>
				<path class="st4" d="M22.9,211.9l15.7-63.4c4.7-20.1,18.5-32.3,38.8-38.8l186.5-62.2c43.2-13.1,53.2,10.3,49.5,37.4l-15,109.2
					c-2.5,18.1-17.3,32.3-36.1,34.7l-125,18.4c-15.9,2-34.5,4.3-45.1,15.7l-22.5,32.6c-13.7,19.5-33,18-28-2.6l10.6-39.3l0,0
					C52.2,253.8,13,246.7,22.9,211.9z"/>
				<g>
					<defs>
						<path id="SVGID_1_" d="M427.2,153c26.9-6.4,47.3,5.6,43.5,33l-24,163.1c-3.9,27.6-24,50.2-49.5,49.1l0,0l-5.3,45
							c-3.1,21.2-13,23.4-22.9,6l-9.4-26.6c-9.8-18-27.7-27.9-40.9-28.5l-169.1-6.3c-22.3-1-47.5-7-43.2-28.9L126,258.8
							c4.4-22.5,21.6-40.3,43.9-45.5L427.2,153z"/>
					</defs>
					<clipPath id="SVGID_2_">
						<use xlink:href="#SVGID_1_"  style="overflow:visible;"/>
					</clipPath>
					<g class="st5">
						
							<linearGradient id="SVGID_3_" gradientUnits="userSpaceOnUse" x1="483.2694" y1="420.9261" x2="290.4468" y2="160.7296" gradientTransform="matrix(1 0 0 -1 0 496.9291)">
							<stop  offset="0" style="stop-color:#359444"/>
							<stop  offset="0.4" style="stop-color:#379544"/>
							<stop  offset="0.6" style="stop-color:#3F9942"/>
							<stop  offset="0.75" style="stop-color:#4CA13F"/>
							<stop  offset="0.89" style="stop-color:#5FAB3C"/>
							<stop  offset="1" style="stop-color:#76B837"/>
						</linearGradient>
						<path class="st6" d="M140.4,184.5c0,0,66.8,179.6,348.8,182.3c151.5,1.4,29.2-264.7,29.2-264.7L140.4,184.5z"/>
					</g>
				</g>
				<g>
					<defs>
						<path id="SVGID_4_" d="M427.2,153c26.9-6.4,47.3,5.6,43.5,33l-24,163.1c-3.9,27.6-24,50.2-49.5,49.1l0,0l-5.3,45
							c-3.1,21.2-13,23.4-22.9,6l-9.4-26.6c-9.8-18-27.7-27.9-40.9-28.5l-169.1-6.3c-22.3-1-47.5-7-43.2-28.9L126,258.8
							c4.4-22.5,21.6-40.3,43.9-45.5L427.2,153z"/>
					</defs>
					<clipPath id="SVGID_5_">
						<use xlink:href="#SVGID_4_"  style="overflow:visible;"/>
					</clipPath>
					<g class="st7">
						<path class="st8" d="M56.7,249.8l15.7-63.3c4.7-20.1,18.5-32.3,38.8-38.8l186.5-62.2c43.2-13.1,53.2,10.3,49.5,37.4l-15,109.2
							c-2.5,18.1-17.3,32.3-36.1,34.7l-125,18.4c-15.9,2-34.5,4.3-45.1,15.7l-22.5,32.6c-13.7,19.5-33,18-28-2.6L86,291.7l0,0
							C86,291.7,46.8,284.6,56.7,249.8z"/>
					</g>
				</g>
				<g>
					<defs>
						<path id="SVGID_6_" d="M22.9,211.9l15.7-63.4c4.7-20.1,18.5-32.3,38.8-38.8l186.5-62.2c43.2-13.1,53.2,10.3,49.5,37.4
							l-15,109.2c-2.5,18.1-17.3,32.3-36.1,34.7l-125,18.4c-15.9,2-34.5,4.3-45.1,15.7l-22.5,32.6c-13.7,19.5-33,18-28-2.6
							l10.6-39.3l0,0C52.2,253.8,13,246.7,22.9,211.9z"/>
					</defs>
					<clipPath id="SVGID_7_">
						<use xlink:href="#SVGID_6_"  style="overflow:visible;"/>
					</clipPath>
					<g class="st9">
						
							<linearGradient id="SVGID_8_" gradientUnits="userSpaceOnUse" x1="276.9547" y1="176.7537" x2="163.5793" y2="361.2723" gradientTransform="matrix(1 0 0 -1 0 496.9291)">
							<stop  offset="0" style="stop-color:#B50056"/>
							<stop  offset="0.44" style="stop-color:#B70256"/>
							<stop  offset="0.67" style="stop-color:#BD0A57"/>
							<stop  offset="0.84" style="stop-color:#C81759"/>
							<stop  offset="0.98" style="stop-color:#D82A5B"/>
							<stop  offset="1" style="stop-color:#DA2C5B"/>
						</linearGradient>
						<path class="st10" d="M18.5,259.5c0,0,128.6-162.8,315-184.5s-20.6,223.1-20.6,223.1l-297,33L18.5,259.5z"/>
					</g>
				</g>
				<path class="st11" d="M57.1,373.5c1.2,4.8,2.9,9.5,5,14c2,4.3,4.4,8.3,7.3,12.1c3.2,4.3,7.2,8,11.7,11
					c8.2,5.3,17.5,7.8,25.1,9.1c1.9,0.4,3.7-0.8,4.1-2.7c0.4-1.9-0.8-3.7-2.7-4.1c-0.1,0-0.2,0-0.3,0c-7-1.1-15.5-3.5-22.4-8
					c-3.8-2.6-7.1-5.8-9.9-9.5c-3.6-4.8-6.5-10.1-8.7-15.7c-0.9-2.3-1.5-4.2-1.9-5.5c-0.2-0.7-0.3-1.2-0.4-1.5l-0.1-0.4V372l0,0
					l-0.7,0.1L64,372l0,0l-0.7,0.1L64,372c-0.4-1.9-2.2-3.1-4.1-2.8c-1.9,0.4-3.1,2.2-2.8,4.1C57.1,373.4,57.1,373.4,57.1,373.5
					L57.1,373.5z"/>
				<path class="st11" d="M339.2,35c-1.6-4.3-3.8-8.2-6.6-11.8c-6.4-8.5-15-15-24.9-18.8c-7.7-3-16-4.5-24.2-4.4
					c-6.2-0.1-12.3,0.7-18.3,2.3c-1.9,0.4-3.1,2.2-2.7,4.1c0.4,1.9,2.2,3.1,4.1,2.7c0.2,0,0.4-0.1,0.6-0.2V8.9V9l0,0V8.9V9
					c5.3-1.4,10.8-2,16.2-2c7.4-0.1,14.8,1.3,21.7,3.9c8.7,3.3,16.3,9,21.9,16.4c1.7,2.2,3.2,4.6,4.4,7.1c0.5,0.9,0.8,1.6,1,2.1
					l0.2,0.5v0.1l0,0l1.4-0.5l-1.4,0.5l0,0l1.4-0.5l-1.4,0.5c0.8,1.8,2.8,2.6,4.6,1.9C338.8,38.4,339.6,36.7,339.2,35z"/>
				
					<linearGradient id="SVGID_9_" gradientUnits="userSpaceOnUse" x1="87.9277" y1="292.136" x2="276.0877" y2="403.516" gradientTransform="matrix(1 0 0 -1 0 496.9291)">
					<stop  offset="1.000000e-02" style="stop-color:#7E1673"/>
					<stop  offset="1" style="stop-color:#DE1E58"/>
				</linearGradient>
				<path class="st12" d="M30.4,247.3l-10.7,41.4v0.1c-0.5,2.1-0.8,4.3-0.8,6.5c0,2.7,0.5,5.3,1.5,7.8c0.7,1.8,1.7,3.4,3,4.8
					c1.9,2.1,4.2,3.6,6.8,4.6c2.5,0.9,5.2,1.4,7.9,1.4c5.5-0.1,10.9-1.7,15.7-4.5c5.5-3.2,10.2-7.7,13.7-13l0,0l19-28.8l-5.4-3.6
					l4.8,4.3c9.8-10.9,23.1-17.9,37.6-19.9l138.7-18.6c21.9-2.9,39.2-20.2,42-42.1l15.2-115c0.3-2.3,0.5-4.7,0.5-7
					c0-5.7-1-11.3-3-16.6c-3-7.9-8.4-14.7-15.6-19.3c-3.8-2.4-7.9-4.3-12.3-5.5c-4.8-1.3-9.8-1.9-14.8-1.9
					c-8.6,0.1-17.2,1.6-25.4,4.3h-0.1L61,89.8l0,0c-22.7,7.6-39.8,26.5-45,49.8l6.3,1.4l-6.3-1.5L0.8,203.3v0.1
					C0.3,205.9,0,208.4,0,211c0,5.5,1,10.9,3,16c1,2.6,2.2,5.1,3.7,7.4c1.5,2.3,3.3,4.5,5.4,6.3c2.7,2.4,6.8,2.1,9.2-0.6
					c2.4-2.7,2.1-6.8-0.6-9.2c0,0-0.1,0-0.1-0.1c-1.2-1-2.2-2.2-3-3.5c-1.5-2.4-2.7-5-3.4-7.7c-0.8-2.8-1.2-5.7-1.2-8.5
					c0-1.6,0.1-3.2,0.5-4.7l-6.3-1.4l6.3,1.5l15.2-63.8v-0.1c4.2-18.9,18.1-34.3,36.5-40.4l0,0l187.6-63l-2-6.1l2,6.2
					c6.9-2.3,14.2-3.6,21.5-3.7c4.9-0.1,9.8,0.8,14.5,2.5c2.8,1.1,5.5,2.6,7.9,4.5c3.3,2.7,5.9,6.1,7.6,10c1.8,4.2,2.7,8.7,2.6,13.3
					c0,1.8-0.1,3.5-0.4,5.3l-15.2,115c-2.1,16.1-14.8,28.8-30.9,31l-138.7,18.6c-17.6,2.4-33.7,10.9-45.5,24.1
					c-0.2,0.2-0.4,0.5-0.6,0.8l-19,28.8l0,0c-2.4,3.7-5.6,6.8-9.4,9c-2.8,1.7-5.9,2.6-9.1,2.7c-1,0-2-0.1-2.9-0.4
					c-0.5-0.2-1-0.4-1.4-0.7c-0.5-0.4-1-0.9-1.3-1.5c-0.4-0.9-0.6-2-0.6-3c0-1.2,0.2-2.4,0.4-3.5l-6.3-1.5l6.3,1.6L43,250.6
					c0.9-3.5-1.2-7-4.7-7.9C34.9,241.8,31.3,243.9,30.4,247.3L30.4,247.3L30.4,247.3z"/>
				
					<linearGradient id="SVGID_10_" gradientUnits="userSpaceOnUse" x1="325.0188" y1="85.2395" x2="244.8688" y2="345.9595" gradientTransform="matrix(1 0 0 -1 0 496.9291)">
					<stop  offset="1.000000e-02" style="stop-color:#A8D52E"/>
					<stop  offset="1" style="stop-color:#439C41"/>
				</linearGradient>
				<path class="st13" d="M328.2,164.7l91.8-21.3l0,0c2.7-0.7,5.5-1,8.3-1c8.5,0,16.7,3.2,22.9,8.9c2.9,2.8,5.3,6.1,6.9,9.8
					c1.7,3.9,2.6,8,2.5,12.2c0,1.5-0.1,3.1-0.3,4.6l-23.5,169.4l0,0c-1.7,12.2-7.1,23.2-14.5,31c-3.6,3.8-7.8,6.9-12.5,9.1
					c-4.6,2.1-9.6,3.3-14.6,3.3h-1.5c-3.4-0.1-6.3,2.3-6.7,5.7l-6.4,52.2l6.5,0.8l-6.4-1c-0.2,1.3-0.5,2.5-1,3.7
					c-0.2,0.5-0.6,1-0.9,1.5c-0.4,0.5-0.9,0.8-1.5,1.1c-0.8,0.3-1.6,0.4-2.4,0.4c-1.6-0.1-3.2-0.4-4.8-1c-3.1-1.2-6-3-8.6-5.2
					c-2.8-2.4-5.2-5.3-7-8.5l-5.7,3.2l5.8-3l-16.9-32.9l-0.1-0.2c-2.2-3.9-5.2-7.4-8.7-10.1c-5-3.7-10.8-6.4-16.9-7.8
					c-5.5-1.3-11.2-2.1-16.9-2.3h-0.1L126,381l0,0c-16.6-0.8-29.5-14.8-28.7-31.4c0.1-1.5,0.2-3,0.5-4.5l12.5-64.3
					c0.7-3.5-1.6-6.9-5.1-7.6c-3.5-0.7-6.9,1.6-7.6,5.1l-12.5,64.2c-4.6,23.4,10.6,46,33.9,50.6c2.1,0.4,4.2,0.7,6.4,0.8h0.1
					l169.1,6.3h-0.1c6.2,0.3,13.1,1.2,18.8,3.3c2.7,1,5.3,2.4,7.6,4.1c2.2,1.7,4,3.7,5.3,6.1l5.7-3.1l-5.8,3l16.9,32.9l0.1,0.2
					c3.4,6,8.2,11.1,13.9,15c2.7,1.9,5.6,3.4,8.6,4.5c3,1.1,6.1,1.6,9.2,1.6c2.2,0,4.4-0.3,6.4-1c1.6-0.6,3.1-1.4,4.5-2.4
					c2.2-1.6,3.9-3.7,5.2-6c1.3-2.6,2.2-5.3,2.6-8.2v-0.2L400,398l-6.5-0.8l-0.3,6.5c0.7,0,1.3,0,2,0c7,0,13.8-1.5,20.1-4.5
					c9.3-4.5,17.2-11.4,22.9-20c6-9,10-19.3,11.5-30.1l0,0l23.6-169.4c0.3-2.1,0.4-4.2,0.5-6.4c0-6-1.2-12-3.7-17.5
					c-3.5-7.9-9.3-14.6-16.6-19.2c-7.5-4.8-16.2-7.3-25-7.3c-3.8,0-7.6,0.5-11.4,1.4l0,0L325.3,152c-3.5,0.7-5.8,4.2-5,7.7
					c0.7,3.5,4.2,5.8,7.7,5C328,164.7,328.1,164.7,328.2,164.7L328.2,164.7z"/>
				<path class="st11" d="M76.6,204.3c-0.1,1.3-1.2,2.4-2.5,2.5L60.2,209c-1.5,0.2-2.1-0.4-1.8-1.8c5-25.7,10.7-51.3,15.2-77.1
					c0.1-1.3,1.1-2.4,2.4-2.6l13-2.2c1.3-0.2,1.9,0.4,1.7,1.9c-2.2,13.8-4.7,27.4-7.3,41.1c5.3-8,7.9-11.9,12.9-19.9
					c0.6-1,1.7-1.6,2.8-1.8l13.1-2.2c0.8-0.1,1.2,0.1,1.2,0.6c0,0.6-0.2,1.1-0.5,1.6c-6.2,9.1-12.5,18.2-18.8,27.3
					c4.5,9.9,6.8,14.9,11.6,25c0.2,0.6,0.2,1.2,0.1,1.8c-0.1,0.6-0.5,1-1.3,1.2l-15.3,2.5c-1,0.3-2-0.2-2.3-1.2
					c-2.7-7.6-4-11.4-6.6-18.9C78.8,192.2,78,196.2,76.6,204.3z"/>
				<path class="st11" d="M121.9,156.5c-1.1,0.4-1.7,0-1.5-1.1c0.6-3.3,0.8-4.9,1.4-8.2c0.3-1.2,1.1-2.1,2.2-2.6
					c1.1-0.7,2.3-1.3,3.5-1.7c1.3-0.6,2.7-1.1,4.2-1.6s2.9-1,4.2-1.4s2.6-0.7,3.6-0.8c3.4-0.7,6.8-0.9,10.2-0.6
					c2.4,0.1,4.6,1.1,6.4,2.7c1.6,1.7,2.6,3.9,2.8,6.2c0.3,3.2,0.2,6.5-0.4,9.7c-1.7,9.9-3.4,19.9-4.9,29.9
					c-0.2,1.3-0.6,2.6-1.3,3.8c-0.7,0.9-1.6,1.7-2.6,2.2c-3,1.3-6,2.5-9.2,3.4c-3.2,0.9-6.5,1.7-9.8,2.2c-3.3,0.6-6.7,0.8-10,0.7
					c-2.3,0-4.5-0.7-6.4-2c-1.6-1.3-2.7-3.1-3-5.1c-0.4-2.8-0.4-5.6,0.2-8.4c1-6.3,3.4-11.1,6.9-14.5c3.4-3.4,7.8-5.6,12.5-6.4
					c1.8-0.3,3.7-0.4,5.6-0.3c1.6,0.1,3.3,0.4,4.8,1c0.2-1,0.2-1.5,0.4-2.4c0.3-1.5,0.4-3,0.3-4.5c0-1-0.4-1.9-1.2-2.6
					c-0.9-0.6-2-0.9-3.1-0.9c-1.8,0-3.5,0.2-5.2,0.5c-1.9,0.3-3.7,0.7-5.5,1.3C125.1,155.3,123.4,156,121.9,156.5z M139.5,173.7
					c-0.8,0-1.6,0-2.4,0.1c-0.9,0.1-1.7,0.2-2.7,0.3c-2.5,0.4-4.2,1.2-5.2,2.3c-1,1.3-1.7,2.9-1.9,4.6c-0.3,1.9-0.1,3.3,0.7,4.1
					s2.3,1,4.6,0.6c1.8-0.3,3.5-0.7,5.2-1.3C138.5,180.1,138.8,177.9,139.5,173.7z"/>
				<path class="st11" d="M166.9,149.6c-1.4,0.2-1.9-0.3-1.7-1.6c0.7-4.3,1.1-6.5,1.8-10.8c0.1-1.3,1.1-2.3,2.4-2.5l6.1-1.1
					c0.9-5.3,1.4-7.9,2.3-13.3c0.1-1.3,1.1-2.4,2.4-2.6l13.6-2.4c1.3-0.2,1.9,0.4,1.6,1.9c-1,5.4-1.5,8.1-2.4,13.4l10.5-1.9
					c1.4-0.2,2,0.4,1.7,1.8c-0.8,4.4-1.3,6.6-2.1,10.9c-0.2,1.3-1.2,2.3-2.5,2.4l-10.4,1.8c-1.5,8.3-2.3,12.4-3.8,20.8
					c-0.5,1.9-0.5,4-0.2,5.9c0.4,1.3,1.6,1.7,3.7,1.4c2.1-0.4,4.2-0.9,6.2-1.6c1.2-0.4,1.7,0,1.4,1.3c-0.7,3.9-1.1,5.8-1.8,9.7
					c-0.3,1.2-1.1,2.2-2.2,2.7c-3.1,1.9-6.4,3.1-9.9,3.8c-2.7,0.6-5.6,0.6-8.3-0.1c-2-0.5-3.7-1.6-4.9-3.3c-1.2-1.8-1.9-3.9-1.9-6.1
					c-0.1-2.9,0-5.7,0.6-8.6c1.6-9.2,2.4-13.8,3.9-23L166.9,149.6z"/>
				<path class="st11" d="M214.4,140.5c-1.2,0.4-1.7,0.1-1.5-1.1c0.7-3.3,1-5,1.7-8.3c0.4-1.2,1.2-2.2,2.4-2.7
					c1.2-0.7,2.5-1.3,3.8-1.8c1.4-0.6,2.9-1.2,4.5-1.7c1.6-0.6,3.1-1,4.6-1.5s2.8-0.7,3.9-0.9c3.6-0.7,7.4-1,11.1-0.7
					c2.5,0.1,4.9,1,6.7,2.6c1.6,1.7,2.5,3.9,2.6,6.2c0.1,3.3-0.3,6.7-1.2,9.9c-2.5,10.2-5,20.4-7.4,30.6c-0.3,1.4-0.8,2.7-1.6,3.9
					c-0.8,1-1.7,1.8-2.9,2.3c-3.1,1.4-6.3,2.6-9.5,3.5c-3.3,1-6.6,1.7-9.9,2.3c-3.3,0.6-6.6,0.9-9.9,0.7c-2.2,0-4.4-0.8-6.2-2.1
					c-1.5-1.3-2.5-3.2-2.8-5.2c-0.4-2.8-0.3-5.7,0.4-8.5c1.2-6.3,3.6-11.2,7.3-14.7c3.6-3.5,8.2-5.8,13.1-6.6
					c1.9-0.3,3.9-0.5,5.8-0.4c1.7,0.1,3.4,0.4,5,1l0.6-2.5c0.4-1.5,0.6-3,0.6-4.6c0.1-1-0.4-2-1.1-2.6c-0.9-0.6-2.1-0.9-3.2-0.9
					c-1.9,0-3.7,0.2-5.5,0.6c-2,0.3-3.9,0.8-5.8,1.3C217.7,139.3,215.9,140,214.4,140.5z M231.9,157.8c-0.8,0-1.7,0-2.5,0.1
					c-0.9,0.1-1.8,0.2-2.8,0.4c-2.6,0.4-4.4,1.2-5.4,2.4c-1.1,1.3-1.8,2.9-2.1,4.6c-0.4,2-0.2,3.4,0.5,4.2s2.2,1,4.6,0.6
					c1.8-0.3,3.6-0.8,5.4-1.4C230.5,164.2,231,162.1,231.9,157.8L231.9,157.8z"/>
				<path class="st11" d="M143.8,341.9c-1.4-0.2-2.7-1.1-3.3-2.4c-0.6-1.8-0.7-3.7-0.3-5.5c3.2-20.8,6.6-41.5,10.2-62.2
					c0.3-2,1-3.9,2.2-5.6c1.1-1.5,2.7-2.6,4.4-3.3c3.4-1.5,6.8-2.7,10.4-3.6c3.7-0.9,7.4-1.7,11.1-2.2c9.5-1.4,15.8,0.1,19,4
					s4.1,9.5,2.7,16.5c-0.6,3.4-1.9,6.5-3.8,9.4c-2.1,3-4.7,5.5-7.7,7.5c3.8,1,6.2,2.9,7.3,5.7s1.3,6.2,0.5,10.3
					c-0.7,3.9-1.8,7.7-3.4,11.3c-1.5,3.4-3.5,6.6-6,9.3c-2.6,2.8-5.6,5-9,6.7c-4,1.9-8.3,3.1-12.7,3.6c-3.8,0.5-7.7,0.9-11.6,1
					C150.5,342.7,147.1,342.5,143.8,341.9z M174.8,274.5c-1.8,0.3-3.6,0.8-5.3,1.5c-1.3,6.9-1.8,10-3,16.3l6.9-1
					c2.1-0.2,4-1.2,5.3-2.8c1.3-1.9,2.2-4.1,2.5-6.4c0.5-2.9,0.4-5-0.4-6.3S177.9,274,174.8,274.5L174.8,274.5z M168,323.9
					c2.4-0.2,4.6-1.3,6.3-3.1c1.6-1.7,2.7-4.4,3.3-8c0.5-3,0.4-5.3-0.3-6.7s-2.3-2-4.7-1.7l-8.4,1.1c-1.2,7-1.8,10.6-3.1,18.6
					c1.1,0.1,2.1,0.1,3.2,0C165.4,324.2,166.6,324,168,323.9z"/>
				<path class="st11" d="M221.8,253.5c3-1.4,6.2-2.5,9.4-3.3c3.6-0.9,7.2-1.6,10.9-2.1c8.9-1.3,14.8,0.4,17.7,4.5
					s3.5,10.4,1.8,18.4c-0.4,1.8-0.6,2.7-1,4.4c-1.7,8-4.7,14.1-9,18.9s-10.5,7.7-18.6,8.8c-1.3,0.2-2.5,0.3-3.7,0.4
					c-1.2,0.1-2.4,0.1-3.5,0c-1.9,9.5-2.8,14.4-4.9,26.1c-0.3,1.7-1.1,2.7-2.5,2.9l-14.8,2c-1.4,0.2-1.9-0.6-1.6-2.4
					c4.1-23.4,8.7-46.6,13.3-69.9c0.3-2,1.1-3.9,2.2-5.6C218.6,255.5,220.1,254.3,221.8,253.5z M228.5,289.8c1.5,0,2.9-0.1,4.4-0.3
					c2.5-0.2,4.8-1.6,6.3-3.6c1.6-2.5,2.7-5.3,3.2-8.2l0.6-2.6c0.7-3.5,0.8-6.3,0.2-8s-2.3-2.5-5.1-2.1c-0.8,0.1-1.5,0.3-2.3,0.4
					c-0.8,0.2-1.6,0.5-2.3,0.8C231.3,276.2,230.4,280.6,228.5,289.8z"/>
				<path class="st11" d="M265.4,283.7c2.2-10.8,6.6-21,13-29.9c5.1-7,15.6-13.2,24.1-14.2c9.8-1.1,16.6,1.5,19.5,7.9
					c4.1,8.7,1.9,19,0.5,28.1l-1,4.6c-2.2,10.9-6.6,21.3-13,30.4c-5.1,7-15.5,13.3-24.1,14.4c-9.8,1.2-16.5-1.7-19.5-8.3
					c-4-8.9-2-19.1-0.7-28.4L265.4,283.7z M284,285c-0.8,3.9-1.4,7.3-1.8,10.1c-0.3,2.3-0.4,4.6-0.1,6.9c0.1,1.5,0.8,2.8,1.9,3.8
					c1.2,0.8,2.7,1.1,4.1,0.8c3.5-0.5,6.3-2.7,8.3-6.5s3.9-9.7,5.6-17.6l0.8-3.5c1.7-7.9,2.4-13.5,1.9-16.9s-2.5-4.9-6-4.4
					c-1.7,0.2-3.3,0.9-4.7,2c-1.5,1.2-2.8,2.8-3.7,4.5c-1.2,2.3-2.3,4.7-3,7.2c-0.9,2.9-1.8,6.3-2.6,10.2
					C284.4,282.9,284.3,283.6,284,285z"/>
				<path class="st11" d="M357.7,292c-2.3,0.3-3.6-0.4-3.8-2c0.3-11.5,0.6-22.9,1-34.4c-3.9,18.9-7.9,37.8-11.5,56.8
					c-0.3,1.7-1.2,2.7-2.7,2.9l-15.1,2.2c-1.4,0.2-2-0.6-1.6-2.3c5-25.9,10.8-51.5,16-77.3c0.1-1.3,1.1-2.3,2.3-2.5l20-2.8
					c2.7-0.4,4.2,0.4,4.4,2.3c-0.5,14.6-0.8,29.1-1.1,43.7c5.7-15.3,11.4-30.6,16.6-46c1.1-2.2,3.2-3.6,5.6-3.8l20.6-3
					c1.3-0.2,1.8,0.4,1.6,1.9c-4.2,25.6-8.8,51.1-13,76.6c-0.1,1.5-1.2,2.7-2.7,2.9l-16.3,2.4c-1.5,0.2-2.1-0.5-1.8-2.2
					c3.4-18.9,7-37.8,10.5-56.7c-4.4,12.2-8.9,24.2-13.3,36.3c-1,1.9-2.8,3.1-4.9,3.3L357.7,292z"/>
			</g>
		</g>
	</g>
</g>
</svg>
